<svg aria-hidden="true" style="position: absolute; width: 20; height: 20; overflow: hidden;" version="1.1" xmlns="http://www.w3.org/2000/svg" xmlns:xlink="http://www.w3.org/1999/xlink">
<defs>
<symbol id="icon-menu" viewBox="0 0 32 32">
<path d="M5.333 9h21.333c0.552 0 1-0.448 1-1s-0.448-1-1-1h-21.333c-0.552 0-1 0.448-1 1s0.448 1 1 1z"></path>
<path d="M5.333 17h21.333c0.552 0 1-0.448 1-1s-0.448-1-1-1h-21.333c-0.552 0-1 0.448-1 1s0.448 1 1 1z"></path>
<path d="M5.333 25h21.333c0.552 0 1-0.448 1-1s-0.448-1-1-1h-21.333c-0.552 0-1 0.448-1 1s0.448 1 1 1z"></path>
</symbol>
</defs>
</svg> 

